<svg viewBox="0 0 127 77" fill="none" xmlns="http://www.w3.org/2000/svg">
<path d="M12.16 61.12C9.97333 61.12 8 60.32 6.24 58.72C4.53333 57.12 3.68 54.4 3.68 50.56C3.68 47.7333 4.21333 44.88 5.28 42C6.4 39.12 7.86667 36.4 9.68 33.84C11.5467 31.2267 13.6267 28.9333 15.92 26.96C18.2133 24.9333 20.56 23.3333 22.96 22.16C25.4133 20.9867 27.7333 20.4 29.92 20.4C30.9867 20.4 31.9733 20.6133 32.88 21.04C33.84 21.4667 34.72 22.0267 35.52 22.72L41.52 20.08L42.4 20.64L35.6 50.48C35.1733 52.1867 34.96 53.44 34.96 54.24C34.96 55.36 35.4933 55.92 36.56 55.92C37.3067 55.92 38.1333 55.6267 39.04 55.04C39.9467 54.4 40.96 53.5467 42.08 52.48L43.04 53.44C42.24 54.6667 41.2533 55.8667 40.08 57.04C38.9067 58.2133 37.5733 59.2 36.08 60C34.64 60.7467 33.12 61.12 31.52 61.12C29.8667 61.12 28.48 60.6133 27.36 59.6C26.24 58.5333 25.68 56.9067 25.68 54.72C25.68 53.9733 25.7333 53.1733 25.84 52.32C23.6533 54.7733 21.36 56.8533 18.96 58.56C16.56 60.2667 14.2933 61.12 12.16 61.12ZM12.96 46.88C12.96 49.6 13.3867 51.5733 14.24 52.8C15.1467 53.9733 16.3467 54.56 17.84 54.56C19.12 54.56 20.4267 54.16 21.76 53.36C23.0933 52.5067 24.5867 51.2533 26.24 49.6C26.2933 49.28 26.3733 48.8533 26.48 48.32L31.44 25.76C30.7467 25.0667 29.9467 24.5867 29.04 24.32C28.1333 24 27.28 23.84 26.48 23.84C24.2933 23.84 21.8933 25.2 19.28 27.92C17.4133 29.9467 15.8933 32.72 14.72 36.24C13.5467 39.7067 12.96 43.2533 12.96 46.88Z" fill="#0E1C51"/>
<rect x="61" width="66" height="77" fill="#0E1C51"/>
<path d="M94.5261 60.96C93.1821 60.96 91.7101 60.768 90.1101 60.384C88.5101 60.064 86.9101 59.552 85.3101 58.848C83.7101 58.08 82.2381 57.12 80.8941 55.968C79.6141 54.816 78.5901 53.472 77.8221 51.936C77.0541 50.4 76.6701 48.608 76.6701 46.56H85.6941C85.6941 46.624 85.7261 47.04 85.7901 47.808C85.9181 48.576 86.2381 49.44 86.7501 50.4C87.2621 51.296 88.0941 52.096 89.2461 52.8C90.3981 53.504 92.0621 53.856 94.2381 53.856C95.9661 53.856 97.3741 53.632 98.4621 53.184C99.5501 52.736 100.35 52.192 100.862 51.552C101.438 50.848 101.726 50.08 101.726 49.248C101.726 47.84 101.118 46.752 99.9021 45.984C98.7501 45.152 97.2461 44.48 95.3901 43.968C93.5341 43.456 91.5501 42.944 89.4381 42.432C87.3901 41.856 85.4381 41.12 83.5821 40.224C81.7901 39.328 80.3181 38.112 79.1661 36.576C78.0141 34.976 77.4381 32.928 77.4381 30.432C77.4381 26.72 78.9101 23.936 81.8541 22.08C84.7981 20.224 88.5421 19.296 93.0861 19.296C95.5181 19.296 97.7901 19.584 99.9021 20.16C102.078 20.672 103.998 21.536 105.662 22.752C107.326 23.904 108.638 25.408 109.598 27.264C110.622 29.056 111.134 31.264 111.134 33.888H102.11C102.174 32.416 101.918 31.232 101.342 30.336C100.83 29.376 100.126 28.64 99.2301 28.128C98.3341 27.616 97.3741 27.264 96.3501 27.072C95.3261 26.88 94.3341 26.784 93.3741 26.784C91.0701 26.784 89.3101 27.2 88.0941 28.032C86.9421 28.8 86.3661 29.824 86.3661 31.104C86.3661 32.576 86.9421 33.728 88.0941 34.56C89.3101 35.328 90.8461 35.968 92.7021 36.48C94.6221 36.992 96.6381 37.536 98.7501 38.112C100.862 38.624 102.846 39.328 104.702 40.224C106.558 41.12 108.062 42.336 109.214 43.872C110.43 45.344 111.038 47.328 111.038 49.824C111.038 52.32 110.334 54.4 108.926 56.064C107.582 57.664 105.662 58.88 103.166 59.712C100.734 60.544 97.8541 60.96 94.5261 60.96Z" fill="white"/>
</svg>
