<svg width="609" height="87" viewBox="0 0 609 87" fill="none" xmlns="http://www.w3.org/2000/svg">
<path d="M15.9256 73.12C13.739 73.12 11.7656 72.32 10.0056 70.72C8.29896 69.12 7.44563 66.4 7.44563 62.56C7.44563 59.7333 7.97896 56.88 9.04562 54C10.1656 51.12 11.6323 48.4 13.4456 45.84C15.3123 43.2267 17.3923 40.9333 19.6856 38.96C21.979 36.9333 24.3256 35.3333 26.7256 34.16C29.179 32.9867 31.499 32.4 33.6856 32.4C34.7523 32.4 35.739 32.6133 36.6456 33.04C37.6056 33.4667 38.4856 34.0267 39.2856 34.72L45.2856 32.08L46.1656 32.64L39.3656 62.48C38.939 64.1867 38.7256 65.44 38.7256 66.24C38.7256 67.36 39.259 67.92 40.3256 67.92C41.0723 67.92 41.899 67.6267 42.8056 67.04C43.7123 66.4 44.7256 65.5467 45.8456 64.48L46.8056 65.44C46.0056 66.6667 45.019 67.8667 43.8456 69.04C42.6723 70.2133 41.339 71.2 39.8456 72C38.4056 72.7467 36.8856 73.12 35.2856 73.12C33.6323 73.12 32.2456 72.6133 31.1256 71.6C30.0056 70.5333 29.4456 68.9067 29.4456 66.72C29.4456 65.9733 29.499 65.1733 29.6056 64.32C27.419 66.7733 25.1256 68.8533 22.7256 70.56C20.3256 72.2667 18.059 73.12 15.9256 73.12ZM16.7256 58.88C16.7256 61.6 17.1523 63.5733 18.0056 64.8C18.9123 65.9733 20.1123 66.56 21.6056 66.56C22.8856 66.56 24.1923 66.16 25.5256 65.36C26.859 64.5067 28.3523 63.2533 30.0056 61.6C30.059 61.28 30.139 60.8533 30.2456 60.32L35.2056 37.76C34.5123 37.0667 33.7123 36.5867 32.8056 36.32C31.899 36 31.0456 35.84 30.2456 35.84C28.059 35.84 25.659 37.2 23.0456 39.92C21.179 41.9467 19.659 44.72 18.4856 48.24C17.3123 51.7067 16.7256 55.2533 16.7256 58.88ZM51.7425 72.64L50.9425 71.92L57.0225 42.88C57.5025 40.7467 56.7025 39.2533 54.6225 38.4L53.4225 37.92L53.5825 36.56L67.7425 32.32L68.6225 33.12L66.8625 42.16C69.6358 39.2267 72.4625 36.88 75.3425 35.12C78.2225 33.3067 80.9158 32.4 83.4225 32.4C85.1292 32.4 86.5158 32.9333 87.5825 34C88.7025 35.0133 89.2625 36.5867 89.2625 38.72C89.2625 39.8933 89.1558 41.0933 88.9425 42.32C88.7292 43.4933 88.4625 44.72 88.1425 46L84.0625 62.4C83.8492 63.2533 83.6625 64 83.5025 64.64C83.3958 65.2267 83.3425 65.7333 83.3425 66.16C83.3425 67.28 83.7958 67.84 84.7025 67.84C86.0892 67.84 87.8492 66.72 89.9825 64.48L91.1025 65.6C89.7692 67.5733 88.0358 69.3333 85.9025 70.88C83.7692 72.3733 81.3958 73.12 78.7825 73.12C77.1292 73.12 75.8225 72.72 74.8625 71.92C73.9025 71.12 73.4225 70.0267 73.4225 68.64C73.4225 67.52 73.5558 66.4 73.8225 65.28C74.0892 64.1067 74.4092 62.8533 74.7825 61.52L77.9025 48.88C78.3292 47.28 78.6758 45.84 78.9425 44.56C79.2092 43.28 79.3425 42.1333 79.3425 41.12C79.3425 40.0533 79.1025 39.3333 78.6225 38.96C78.1958 38.5333 77.6092 38.32 76.8625 38.32C75.5825 38.32 74.0358 38.88 72.2225 40C70.4625 41.0667 68.4625 42.7733 66.2225 45.12L64.0625 54.96C63.4758 57.7867 62.9158 60.6133 62.3825 63.44C61.8492 66.2667 61.3158 69.12 60.7825 72L51.7425 72.64ZM103.414 73.12C101.334 73.12 99.4944 72.32 97.8944 70.72C96.2944 69.0667 95.4944 66.24 95.4944 62.24C95.4944 59.4667 96.001 56.6667 97.0144 53.84C98.081 51.0133 99.4944 48.32 101.254 45.76C103.068 43.2 105.094 40.9333 107.334 38.96C109.574 36.9333 111.921 35.3333 114.374 34.16C116.828 32.9867 119.201 32.4 121.494 32.4C122.614 32.4 123.654 32.5867 124.614 32.96L125.814 26.8C126.294 24.4 125.414 22.8267 123.174 22.08L121.574 21.52L121.814 20.16L136.534 15.84L137.254 16.48L127.574 62.48C127.414 63.3333 127.281 64.0533 127.174 64.64C127.068 65.2267 127.014 65.7867 127.014 66.32C127.014 67.44 127.521 68 128.534 68C129.121 68 129.921 67.68 130.934 67.04C131.948 66.4 132.988 65.4933 134.054 64.32L135.174 65.52C133.894 67.4933 132.188 69.2533 130.054 70.8C127.921 72.3467 125.654 73.12 123.254 73.12C121.548 73.12 120.188 72.5867 119.174 71.52C118.214 70.4533 117.734 69.04 117.734 67.28C117.681 66.3733 117.734 65.3067 117.894 64.08C115.708 66.7467 113.308 68.9333 110.694 70.64C108.081 72.2933 105.654 73.12 103.414 73.12ZM104.934 59.36C104.934 62.0267 105.361 63.9467 106.214 65.12C107.121 66.2933 108.268 66.88 109.654 66.88C110.934 66.88 112.268 66.4267 113.654 65.52C115.094 64.56 116.694 63.0667 118.454 61.04V60.88L123.174 37.76C121.788 36.5867 120.214 36 118.454 36C117.121 36 115.841 36.32 114.614 36.96C113.441 37.6 112.348 38.48 111.334 39.6C110.108 40.9333 108.988 42.72 107.974 44.96C107.014 47.1467 106.268 49.52 105.734 52.08C105.201 54.5867 104.934 57.0133 104.934 59.36ZM139.243 72.64L138.443 71.92L144.443 42.96C144.709 41.68 144.629 40.6933 144.203 40C143.776 39.2533 143.029 38.6933 141.963 38.32L140.842 37.92L141.083 36.56L154.363 32.32L155.323 33.2L153.163 45.76C154.336 43.3067 155.669 41.0667 157.163 39.04C158.656 37.0133 160.203 35.4133 161.803 34.24C163.456 33.0133 165.083 32.4 166.683 32.4C168.283 32.4 169.563 32.8267 170.523 33.68C171.536 34.5333 172.043 35.6533 172.043 37.04C172.043 38.5333 171.616 39.7333 170.763 40.64C169.909 41.5467 168.763 42 167.323 42C165.083 42 163.003 40.88 161.083 38.64C159.163 40.1867 157.509 42.1067 156.122 44.4C154.736 46.64 153.429 49.0667 152.203 51.68L151.563 54.96C151.029 57.7867 150.469 60.6133 149.883 63.44C149.349 66.2667 148.816 69.12 148.283 72L139.243 72.64ZM186.04 27.68C184.547 27.68 183.267 27.2 182.2 26.24C181.133 25.28 180.6 23.9733 180.6 22.32C180.6 20.56 181.24 19.0933 182.52 17.92C183.8 16.7467 185.24 16.16 186.84 16.16C188.387 16.16 189.667 16.6667 190.68 17.68C191.693 18.64 192.2 19.8933 192.2 21.44C192.2 23.1467 191.56 24.6133 190.28 25.84C189.053 27.0667 187.64 27.68 186.04 27.68ZM178.68 73.12C177.08 73.12 175.747 72.72 174.68 71.92C173.667 71.0667 173.16 69.84 173.16 68.24C173.16 67.3333 173.267 66.24 173.48 64.96C173.693 63.68 173.933 62.3733 174.2 61.04L177.96 42.96C178.44 40.72 177.613 39.2 175.48 38.4L174.36 37.92L174.52 36.48L188.92 32.32L189.72 33.12L183.64 61.68C183.427 62.5867 183.267 63.3867 183.16 64.08C183.053 64.72 183 65.3333 183 65.92C183 67.0933 183.533 67.68 184.6 67.68C185.88 67.68 187.56 66.6667 189.64 64.64L190.68 65.68C189.347 67.6533 187.667 69.3867 185.64 70.88C183.667 72.3733 181.347 73.12 178.68 73.12ZM195.024 72.64L194.224 71.92L200.304 42.88C200.784 40.7467 199.984 39.2533 197.904 38.4L196.704 37.92L196.864 36.56L211.024 32.32L211.904 33.12L210.144 42.16C212.917 39.2267 215.744 36.88 218.624 35.12C221.504 33.3067 224.197 32.4 226.704 32.4C228.41 32.4 229.797 32.9333 230.864 34C231.984 35.0133 232.544 36.5867 232.544 38.72C232.544 39.8933 232.437 41.0933 232.224 42.32C232.01 43.4933 231.744 44.72 231.424 46L227.344 62.4C227.13 63.2533 226.944 64 226.784 64.64C226.677 65.2267 226.624 65.7333 226.624 66.16C226.624 67.28 227.077 67.84 227.984 67.84C229.37 67.84 231.13 66.72 233.264 64.48L234.384 65.6C233.05 67.5733 231.317 69.3333 229.184 70.88C227.05 72.3733 224.677 73.12 222.064 73.12C220.41 73.12 219.104 72.72 218.144 71.92C217.184 71.12 216.704 70.0267 216.704 68.64C216.704 67.52 216.837 66.4 217.104 65.28C217.37 64.1067 217.69 62.8533 218.064 61.52L221.184 48.88C221.61 47.28 221.957 45.84 222.224 44.56C222.49 43.28 222.624 42.1333 222.624 41.12C222.624 40.0533 222.384 39.3333 221.904 38.96C221.477 38.5333 220.89 38.32 220.144 38.32C218.864 38.32 217.317 38.88 215.504 40C213.744 41.0667 211.744 42.7733 209.504 45.12L207.344 54.96C206.757 57.7867 206.197 60.6133 205.664 63.44C205.13 66.2667 204.597 69.12 204.064 72L195.024 72.64ZM247.016 73.12C245.149 73.12 243.549 72.48 242.216 71.2C240.936 69.92 240.296 68.3733 240.296 66.56C240.296 64.6933 240.936 63.0933 242.216 61.76C243.549 60.4267 245.149 59.76 247.016 59.76C248.882 59.76 250.456 60.4267 251.736 61.76C253.069 63.0933 253.736 64.6933 253.736 66.56C253.736 68.3733 253.069 69.92 251.736 71.2C250.456 72.48 248.882 73.12 247.016 73.12Z" fill="white"/>
<rect x="260" width="349" height="87" fill="white"/>
<path d="M293.776 71.96C292.432 71.96 290.96 71.768 289.36 71.384C287.76 71.064 286.16 70.552 284.56 69.848C282.96 69.08 281.488 68.12 280.144 66.968C278.864 65.816 277.84 64.472 277.072 62.936C276.304 61.4 275.92 59.608 275.92 57.56H284.944C284.944 57.624 284.976 58.04 285.04 58.808C285.168 59.576 285.488 60.44 286 61.4C286.512 62.296 287.344 63.096 288.496 63.8C289.648 64.504 291.312 64.856 293.488 64.856C295.216 64.856 296.624 64.632 297.712 64.184C298.8 63.736 299.6 63.192 300.112 62.552C300.688 61.848 300.976 61.08 300.976 60.248C300.976 58.84 300.368 57.752 299.152 56.984C298 56.152 296.496 55.48 294.64 54.968C292.784 54.456 290.8 53.944 288.688 53.432C286.64 52.856 284.688 52.12 282.832 51.224C281.04 50.328 279.568 49.112 278.416 47.576C277.264 45.976 276.688 43.928 276.688 41.432C276.688 37.72 278.16 34.936 281.104 33.08C284.048 31.224 287.792 30.296 292.336 30.296C294.768 30.296 297.04 30.584 299.152 31.16C301.328 31.672 303.248 32.536 304.912 33.752C306.576 34.904 307.888 36.408 308.848 38.264C309.872 40.056 310.384 42.264 310.384 44.888H301.36C301.424 43.416 301.168 42.232 300.592 41.336C300.08 40.376 299.376 39.64 298.48 39.128C297.584 38.616 296.624 38.264 295.6 38.072C294.576 37.88 293.584 37.784 292.624 37.784C290.32 37.784 288.56 38.2 287.344 39.032C286.192 39.8 285.616 40.824 285.616 42.104C285.616 43.576 286.192 44.728 287.344 45.56C288.56 46.328 290.096 46.968 291.952 47.48C293.872 47.992 295.888 48.536 298 49.112C300.112 49.624 302.096 50.328 303.952 51.224C305.808 52.12 307.312 53.336 308.464 54.872C309.68 56.344 310.288 58.328 310.288 60.824C310.288 63.32 309.584 65.4 308.176 67.064C306.832 68.664 304.912 69.88 302.416 70.712C299.984 71.544 297.104 71.96 293.776 71.96ZM335.252 71.96C330.9 71.96 327.22 71.096 324.212 69.368C321.268 67.64 319.06 65.272 317.588 62.264C316.116 59.192 315.38 55.704 315.38 51.8C315.38 47.832 316.116 44.344 317.588 41.336C319.06 38.264 321.268 35.864 324.212 34.136C327.22 32.408 330.932 31.544 335.348 31.544C341.812 31.544 346.708 33.4 350.036 37.112C353.428 40.824 355.124 45.72 355.124 51.8C355.124 55.576 354.42 59 353.012 62.072C351.604 65.144 349.428 67.576 346.484 69.368C343.54 71.096 339.796 71.96 335.252 71.96ZM335.252 63.704C338.132 63.704 340.308 63.096 341.78 61.88C343.316 60.664 344.34 59.128 344.852 57.272C345.364 55.352 345.62 53.432 345.62 51.512C345.62 49.464 345.364 47.512 344.852 45.656C344.34 43.8 343.316 42.264 341.78 41.048C340.308 39.768 338.132 39.128 335.252 39.128C332.436 39.128 330.26 39.768 328.724 41.048C327.252 42.264 326.228 43.8 325.652 45.656C325.14 47.512 324.884 49.464 324.884 51.512C324.884 53.432 325.14 55.352 325.652 57.272C326.228 59.128 327.252 60.664 328.724 61.88C330.26 63.096 332.436 63.704 335.252 63.704ZM365.461 71.096V25.112C365.461 21.656 366.229 19.16 367.765 17.624C369.365 16.088 371.733 15.32 374.869 15.32H385.237V22.904H375.253V71.096H365.461ZM360.085 38.456V31.544H384.949V38.456H360.085ZM402.621 71C399.485 71 397.117 70.232 395.517 68.696C393.981 67.16 393.213 64.664 393.213 61.208V37.4H402.333V63.32H411.549V71H402.621ZM387.261 38.456V31.544C388.669 31.544 389.821 31.448 390.717 31.256C391.613 31.064 392.317 30.648 392.829 30.008C393.405 29.368 393.821 28.376 394.077 27.032C394.333 25.688 394.461 23.832 394.461 21.464H402.333V31.544H411.357V38.456H387.261ZM425.151 71L415.935 33.176V31.448H425.535L432.063 62.84H432.255L440.703 31.448H449.151L457.887 62.84H458.079L464.607 31.448H474.111V33.176L464.799 71H451.167L445.023 48.44H444.831L438.975 71H425.151ZM493.479 71.96C489.895 71.96 486.983 71.128 484.743 69.464C482.503 67.736 480.871 65.368 479.847 62.36C478.887 59.288 478.407 55.768 478.407 51.8C478.407 47.768 478.919 44.216 479.943 41.144C480.967 38.072 482.567 35.704 484.743 34.04C486.983 32.312 489.895 31.448 493.479 31.448C495.783 31.448 497.703 31.768 499.239 32.408C500.839 33.048 502.119 33.816 503.079 34.712C504.103 35.608 504.871 36.504 505.383 37.4C505.895 38.232 506.247 38.904 506.439 39.416H506.631V31.544H516.711V71H508.263L506.631 64.568H506.439C506.311 65.016 505.959 65.656 505.383 66.488C504.807 67.256 504.007 68.088 502.983 68.984C502.023 69.816 500.743 70.52 499.143 71.096C497.607 71.672 495.719 71.96 493.479 71.96ZM497.511 63.704C499.879 63.704 501.735 63.192 503.079 62.168C504.423 61.144 505.351 59.736 505.863 57.944C506.375 56.088 506.631 54.072 506.631 51.896C506.631 49.528 506.343 47.48 505.767 45.752C505.255 43.96 504.327 42.584 502.983 41.624C501.703 40.6 499.879 40.088 497.511 40.088C495.015 40.088 493.063 40.632 491.655 41.72C490.311 42.808 489.351 44.248 488.775 46.04C488.263 47.768 488.007 49.72 488.007 51.896C488.007 54.072 488.263 56.056 488.775 57.848C489.351 59.64 490.311 61.08 491.655 62.168C493.063 63.192 495.015 63.704 497.511 63.704ZM523.923 71V31.544H533.043L533.811 43.064L533.715 51.512V71H523.923ZM533.715 54.008L533.427 45.272C533.427 43.928 533.683 42.488 534.195 40.952C534.707 39.352 535.539 37.848 536.691 36.44C537.907 35.032 539.475 33.88 541.395 32.984C543.315 32.024 545.683 31.544 548.499 31.544H549.939V42.488H548.499C545.747 42.488 543.411 42.712 541.491 43.16C539.571 43.544 538.035 44.184 536.883 45.08C535.795 45.976 534.995 47.16 534.483 48.632C533.971 50.104 533.715 51.896 533.715 54.008ZM574.312 71.96C569.768 71.96 566.056 71 563.176 69.08C560.36 67.096 558.248 64.568 556.84 61.496C555.496 58.424 554.792 55.224 554.728 51.896C554.664 47.928 555.4 44.408 556.936 41.336C558.536 38.2 560.776 35.768 563.656 34.04C566.6 32.248 570.056 31.352 574.024 31.352C577.544 31.352 580.712 32.12 583.528 33.656C586.344 35.192 588.552 37.336 590.152 40.088C591.816 42.84 592.68 46.136 592.744 49.976C592.744 50.104 592.744 50.488 592.744 51.128C592.744 51.704 592.744 52.152 592.744 52.472H564.04C564.04 56.12 564.936 58.936 566.728 60.92C568.584 62.84 571.048 63.8 574.12 63.8C576.552 63.8 578.568 63.192 580.168 61.976C581.832 60.76 582.824 59.16 583.144 57.176H592.648C592.392 59.928 591.496 62.424 589.96 64.664C588.424 66.904 586.344 68.696 583.72 70.04C581.096 71.32 577.96 71.96 574.312 71.96ZM564.328 48.056H582.952C582.888 47.608 582.76 46.904 582.568 45.944C582.376 44.984 581.96 43.992 581.32 42.968C580.68 41.944 579.752 41.08 578.536 40.376C577.32 39.672 575.752 39.32 573.832 39.32C571.912 39.32 570.344 39.64 569.128 40.28C567.912 40.92 566.984 41.72 566.344 42.68C565.704 43.64 565.224 44.6 564.904 45.56C564.584 46.52 564.392 47.352 564.328 48.056Z" fill="#0E1C51"/>
</svg>
