<svg viewBox="0 0 611 154" fill="none" xmlns="http://www.w3.org/2000/svg">
<path d="M15.9256 73.12C13.739 73.12 11.7656 72.32 10.0056 70.72C8.29896 69.12 7.44563 66.4 7.44563 62.56C7.44563 59.7333 7.97896 56.88 9.04562 54C10.1656 51.12 11.6323 48.4 13.4456 45.84C15.3123 43.2267 17.3923 40.9333 19.6856 38.96C21.979 36.9333 24.3256 35.3333 26.7256 34.16C29.179 32.9867 31.499 32.4 33.6856 32.4C34.7523 32.4 35.739 32.6133 36.6456 33.04C37.6056 33.4667 38.4856 34.0267 39.2856 34.72L45.2856 32.08L46.1656 32.64L39.3656 62.48C38.939 64.1867 38.7256 65.44 38.7256 66.24C38.7256 67.36 39.259 67.92 40.3256 67.92C41.0723 67.92 41.899 67.6267 42.8056 67.04C43.7123 66.4 44.7256 65.5467 45.8456 64.48L46.8056 65.44C46.0056 66.6667 45.019 67.8667 43.8456 69.04C42.6723 70.2133 41.339 71.2 39.8456 72C38.4056 72.7467 36.8856 73.12 35.2856 73.12C33.6323 73.12 32.2456 72.6133 31.1256 71.6C30.0056 70.5333 29.4456 68.9067 29.4456 66.72C29.4456 65.9733 29.499 65.1733 29.6056 64.32C27.419 66.7733 25.1256 68.8533 22.7256 70.56C20.3256 72.2667 18.059 73.12 15.9256 73.12ZM16.7256 58.88C16.7256 61.6 17.1523 63.5733 18.0056 64.8C18.9123 65.9733 20.1123 66.56 21.6056 66.56C22.8856 66.56 24.1923 66.16 25.5256 65.36C26.859 64.5067 28.3523 63.2533 30.0056 61.6C30.059 61.28 30.139 60.8533 30.2456 60.32L35.2056 37.76C34.5123 37.0667 33.7123 36.5867 32.8056 36.32C31.899 36 31.0456 35.84 30.2456 35.84C28.059 35.84 25.659 37.2 23.0456 39.92C21.179 41.9467 19.659 44.72 18.4856 48.24C17.3123 51.7067 16.7256 55.2533 16.7256 58.88ZM51.7425 72.64L50.9425 71.92L57.0225 42.88C57.5025 40.7467 56.7025 39.2533 54.6225 38.4L53.4225 37.92L53.5825 36.56L67.7425 32.32L68.6225 33.12L66.8625 42.16C69.6358 39.2267 72.4625 36.88 75.3425 35.12C78.2225 33.3067 80.9158 32.4 83.4225 32.4C85.1292 32.4 86.5158 32.9333 87.5825 34C88.7025 35.0133 89.2625 36.5867 89.2625 38.72C89.2625 39.8933 89.1558 41.0933 88.9425 42.32C88.7292 43.4933 88.4625 44.72 88.1425 46L84.0625 62.4C83.8492 63.2533 83.6625 64 83.5025 64.64C83.3958 65.2267 83.3425 65.7333 83.3425 66.16C83.3425 67.28 83.7958 67.84 84.7025 67.84C86.0892 67.84 87.8492 66.72 89.9825 64.48L91.1025 65.6C89.7692 67.5733 88.0358 69.3333 85.9025 70.88C83.7692 72.3733 81.3958 73.12 78.7825 73.12C77.1292 73.12 75.8225 72.72 74.8625 71.92C73.9025 71.12 73.4225 70.0267 73.4225 68.64C73.4225 67.52 73.5558 66.4 73.8225 65.28C74.0892 64.1067 74.4092 62.8533 74.7825 61.52L77.9025 48.88C78.3292 47.28 78.6758 45.84 78.9425 44.56C79.2092 43.28 79.3425 42.1333 79.3425 41.12C79.3425 40.0533 79.1025 39.3333 78.6225 38.96C78.1958 38.5333 77.6092 38.32 76.8625 38.32C75.5825 38.32 74.0358 38.88 72.2225 40C70.4625 41.0667 68.4625 42.7733 66.2225 45.12L64.0625 54.96C63.4758 57.7867 62.9158 60.6133 62.3825 63.44C61.8492 66.2667 61.3158 69.12 60.7825 72L51.7425 72.64ZM103.414 73.12C101.334 73.12 99.4944 72.32 97.8944 70.72C96.2944 69.0667 95.4944 66.24 95.4944 62.24C95.4944 59.4667 96.001 56.6667 97.0144 53.84C98.081 51.0133 99.4944 48.32 101.254 45.76C103.068 43.2 105.094 40.9333 107.334 38.96C109.574 36.9333 111.921 35.3333 114.374 34.16C116.828 32.9867 119.201 32.4 121.494 32.4C122.614 32.4 123.654 32.5867 124.614 32.96L125.814 26.8C126.294 24.4 125.414 22.8267 123.174 22.08L121.574 21.52L121.814 20.16L136.534 15.84L137.254 16.48L127.574 62.48C127.414 63.3333 127.281 64.0533 127.174 64.64C127.068 65.2267 127.014 65.7867 127.014 66.32C127.014 67.44 127.521 68 128.534 68C129.121 68 129.921 67.68 130.934 67.04C131.948 66.4 132.988 65.4933 134.054 64.32L135.174 65.52C133.894 67.4933 132.188 69.2533 130.054 70.8C127.921 72.3467 125.654 73.12 123.254 73.12C121.548 73.12 120.188 72.5867 119.174 71.52C118.214 70.4533 117.734 69.04 117.734 67.28C117.681 66.3733 117.734 65.3067 117.894 64.08C115.708 66.7467 113.308 68.9333 110.694 70.64C108.081 72.2933 105.654 73.12 103.414 73.12ZM104.934 59.36C104.934 62.0267 105.361 63.9467 106.214 65.12C107.121 66.2933 108.268 66.88 109.654 66.88C110.934 66.88 112.268 66.4267 113.654 65.52C115.094 64.56 116.694 63.0667 118.454 61.04V60.88L123.174 37.76C121.788 36.5867 120.214 36 118.454 36C117.121 36 115.841 36.32 114.614 36.96C113.441 37.6 112.348 38.48 111.334 39.6C110.108 40.9333 108.988 42.72 107.974 44.96C107.014 47.1467 106.268 49.52 105.734 52.08C105.201 54.5867 104.934 57.0133 104.934 59.36ZM139.243 72.64L138.443 71.92L144.443 42.96C144.709 41.68 144.629 40.6933 144.203 40C143.776 39.2533 143.029 38.6933 141.963 38.32L140.842 37.92L141.083 36.56L154.363 32.32L155.323 33.2L153.163 45.76C154.336 43.3067 155.669 41.0667 157.163 39.04C158.656 37.0133 160.203 35.4133 161.803 34.24C163.456 33.0133 165.083 32.4 166.683 32.4C168.283 32.4 169.563 32.8267 170.523 33.68C171.536 34.5333 172.043 35.6533 172.043 37.04C172.043 38.5333 171.616 39.7333 170.763 40.64C169.909 41.5467 168.763 42 167.323 42C165.083 42 163.003 40.88 161.083 38.64C159.163 40.1867 157.509 42.1067 156.122 44.4C154.736 46.64 153.429 49.0667 152.203 51.68L151.563 54.96C151.029 57.7867 150.469 60.6133 149.883 63.44C149.349 66.2667 148.816 69.12 148.283 72L139.243 72.64ZM186.04 27.68C184.547 27.68 183.267 27.2 182.2 26.24C181.133 25.28 180.6 23.9733 180.6 22.32C180.6 20.56 181.24 19.0933 182.52 17.92C183.8 16.7467 185.24 16.16 186.84 16.16C188.387 16.16 189.667 16.6667 190.68 17.68C191.693 18.64 192.2 19.8933 192.2 21.44C192.2 23.1467 191.56 24.6133 190.28 25.84C189.053 27.0667 187.64 27.68 186.04 27.68ZM178.68 73.12C177.08 73.12 175.747 72.72 174.68 71.92C173.667 71.0667 173.16 69.84 173.16 68.24C173.16 67.3333 173.267 66.24 173.48 64.96C173.693 63.68 173.933 62.3733 174.2 61.04L177.96 42.96C178.44 40.72 177.613 39.2 175.48 38.4L174.36 37.92L174.52 36.48L188.92 32.32L189.72 33.12L183.64 61.68C183.427 62.5867 183.267 63.3867 183.16 64.08C183.053 64.72 183 65.3333 183 65.92C183 67.0933 183.533 67.68 184.6 67.68C185.88 67.68 187.56 66.6667 189.64 64.64L190.68 65.68C189.347 67.6533 187.667 69.3867 185.64 70.88C183.667 72.3733 181.347 73.12 178.68 73.12ZM195.024 72.64L194.224 71.92L200.304 42.88C200.784 40.7467 199.984 39.2533 197.904 38.4L196.704 37.92L196.864 36.56L211.024 32.32L211.904 33.12L210.144 42.16C212.917 39.2267 215.744 36.88 218.624 35.12C221.504 33.3067 224.197 32.4 226.704 32.4C228.41 32.4 229.797 32.9333 230.864 34C231.984 35.0133 232.544 36.5867 232.544 38.72C232.544 39.8933 232.437 41.0933 232.224 42.32C232.01 43.4933 231.744 44.72 231.424 46L227.344 62.4C227.13 63.2533 226.944 64 226.784 64.64C226.677 65.2267 226.624 65.7333 226.624 66.16C226.624 67.28 227.077 67.84 227.984 67.84C229.37 67.84 231.13 66.72 233.264 64.48L234.384 65.6C233.05 67.5733 231.317 69.3333 229.184 70.88C227.05 72.3733 224.677 73.12 222.064 73.12C220.41 73.12 219.104 72.72 218.144 71.92C217.184 71.12 216.704 70.0267 216.704 68.64C216.704 67.52 216.837 66.4 217.104 65.28C217.37 64.1067 217.69 62.8533 218.064 61.52L221.184 48.88C221.61 47.28 221.957 45.84 222.224 44.56C222.49 43.28 222.624 42.1333 222.624 41.12C222.624 40.0533 222.384 39.3333 221.904 38.96C221.477 38.5333 220.89 38.32 220.144 38.32C218.864 38.32 217.317 38.88 215.504 40C213.744 41.0667 211.744 42.7733 209.504 45.12L207.344 54.96C206.757 57.7867 206.197 60.6133 205.664 63.44C205.13 66.2667 204.597 69.12 204.064 72L195.024 72.64ZM247.016 73.12C245.149 73.12 243.549 72.48 242.216 71.2C240.936 69.92 240.296 68.3733 240.296 66.56C240.296 64.6933 240.936 63.0933 242.216 61.76C243.549 60.4267 245.149 59.76 247.016 59.76C248.882 59.76 250.456 60.4267 251.736 61.76C253.069 63.0933 253.736 64.6933 253.736 66.56C253.736 68.3733 253.069 69.92 251.736 71.2C250.456 72.48 248.882 73.12 247.016 73.12Z" fill="#0E1C51"/>
<rect x="260" width="349" height="87" fill="#0E1C51"/>
<path d="M293.776 71.96C292.432 71.96 290.96 71.768 289.36 71.384C287.76 71.064 286.16 70.552 284.56 69.848C282.96 69.08 281.488 68.12 280.144 66.968C278.864 65.816 277.84 64.472 277.072 62.936C276.304 61.4 275.92 59.608 275.92 57.56H284.944C284.944 57.624 284.976 58.04 285.04 58.808C285.168 59.576 285.488 60.44 286 61.4C286.512 62.296 287.344 63.096 288.496 63.8C289.648 64.504 291.312 64.856 293.488 64.856C295.216 64.856 296.624 64.632 297.712 64.184C298.8 63.736 299.6 63.192 300.112 62.552C300.688 61.848 300.976 61.08 300.976 60.248C300.976 58.84 300.368 57.752 299.152 56.984C298 56.152 296.496 55.48 294.64 54.968C292.784 54.456 290.8 53.944 288.688 53.432C286.64 52.856 284.688 52.12 282.832 51.224C281.04 50.328 279.568 49.112 278.416 47.576C277.264 45.976 276.688 43.928 276.688 41.432C276.688 37.72 278.16 34.936 281.104 33.08C284.048 31.224 287.792 30.296 292.336 30.296C294.768 30.296 297.04 30.584 299.152 31.16C301.328 31.672 303.248 32.536 304.912 33.752C306.576 34.904 307.888 36.408 308.848 38.264C309.872 40.056 310.384 42.264 310.384 44.888H301.36C301.424 43.416 301.168 42.232 300.592 41.336C300.08 40.376 299.376 39.64 298.48 39.128C297.584 38.616 296.624 38.264 295.6 38.072C294.576 37.88 293.584 37.784 292.624 37.784C290.32 37.784 288.56 38.2 287.344 39.032C286.192 39.8 285.616 40.824 285.616 42.104C285.616 43.576 286.192 44.728 287.344 45.56C288.56 46.328 290.096 46.968 291.952 47.48C293.872 47.992 295.888 48.536 298 49.112C300.112 49.624 302.096 50.328 303.952 51.224C305.808 52.12 307.312 53.336 308.464 54.872C309.68 56.344 310.288 58.328 310.288 60.824C310.288 63.32 309.584 65.4 308.176 67.064C306.832 68.664 304.912 69.88 302.416 70.712C299.984 71.544 297.104 71.96 293.776 71.96ZM335.252 71.96C330.9 71.96 327.22 71.096 324.212 69.368C321.268 67.64 319.06 65.272 317.588 62.264C316.116 59.192 315.38 55.704 315.38 51.8C315.38 47.832 316.116 44.344 317.588 41.336C319.06 38.264 321.268 35.864 324.212 34.136C327.22 32.408 330.932 31.544 335.348 31.544C341.812 31.544 346.708 33.4 350.036 37.112C353.428 40.824 355.124 45.72 355.124 51.8C355.124 55.576 354.42 59 353.012 62.072C351.604 65.144 349.428 67.576 346.484 69.368C343.54 71.096 339.796 71.96 335.252 71.96ZM335.252 63.704C338.132 63.704 340.308 63.096 341.78 61.88C343.316 60.664 344.34 59.128 344.852 57.272C345.364 55.352 345.62 53.432 345.62 51.512C345.62 49.464 345.364 47.512 344.852 45.656C344.34 43.8 343.316 42.264 341.78 41.048C340.308 39.768 338.132 39.128 335.252 39.128C332.436 39.128 330.26 39.768 328.724 41.048C327.252 42.264 326.228 43.8 325.652 45.656C325.14 47.512 324.884 49.464 324.884 51.512C324.884 53.432 325.14 55.352 325.652 57.272C326.228 59.128 327.252 60.664 328.724 61.88C330.26 63.096 332.436 63.704 335.252 63.704ZM365.461 71.096V25.112C365.461 21.656 366.229 19.16 367.765 17.624C369.365 16.088 371.733 15.32 374.869 15.32H385.237V22.904H375.253V71.096H365.461ZM360.085 38.456V31.544H384.949V38.456H360.085ZM402.621 71C399.485 71 397.117 70.232 395.517 68.696C393.981 67.16 393.213 64.664 393.213 61.208V37.4H402.333V63.32H411.549V71H402.621ZM387.261 38.456V31.544C388.669 31.544 389.821 31.448 390.717 31.256C391.613 31.064 392.317 30.648 392.829 30.008C393.405 29.368 393.821 28.376 394.077 27.032C394.333 25.688 394.461 23.832 394.461 21.464H402.333V31.544H411.357V38.456H387.261ZM425.151 71L415.935 33.176V31.448H425.535L432.063 62.84H432.255L440.703 31.448H449.151L457.887 62.84H458.079L464.607 31.448H474.111V33.176L464.799 71H451.167L445.023 48.44H444.831L438.975 71H425.151ZM493.479 71.96C489.895 71.96 486.983 71.128 484.743 69.464C482.503 67.736 480.871 65.368 479.847 62.36C478.887 59.288 478.407 55.768 478.407 51.8C478.407 47.768 478.919 44.216 479.943 41.144C480.967 38.072 482.567 35.704 484.743 34.04C486.983 32.312 489.895 31.448 493.479 31.448C495.783 31.448 497.703 31.768 499.239 32.408C500.839 33.048 502.119 33.816 503.079 34.712C504.103 35.608 504.871 36.504 505.383 37.4C505.895 38.232 506.247 38.904 506.439 39.416H506.631V31.544H516.711V71H508.263L506.631 64.568H506.439C506.311 65.016 505.959 65.656 505.383 66.488C504.807 67.256 504.007 68.088 502.983 68.984C502.023 69.816 500.743 70.52 499.143 71.096C497.607 71.672 495.719 71.96 493.479 71.96ZM497.511 63.704C499.879 63.704 501.735 63.192 503.079 62.168C504.423 61.144 505.351 59.736 505.863 57.944C506.375 56.088 506.631 54.072 506.631 51.896C506.631 49.528 506.343 47.48 505.767 45.752C505.255 43.96 504.327 42.584 502.983 41.624C501.703 40.6 499.879 40.088 497.511 40.088C495.015 40.088 493.063 40.632 491.655 41.72C490.311 42.808 489.351 44.248 488.775 46.04C488.263 47.768 488.007 49.72 488.007 51.896C488.007 54.072 488.263 56.056 488.775 57.848C489.351 59.64 490.311 61.08 491.655 62.168C493.063 63.192 495.015 63.704 497.511 63.704ZM523.923 71V31.544H533.043L533.811 43.064L533.715 51.512V71H523.923ZM533.715 54.008L533.427 45.272C533.427 43.928 533.683 42.488 534.195 40.952C534.707 39.352 535.539 37.848 536.691 36.44C537.907 35.032 539.475 33.88 541.395 32.984C543.315 32.024 545.683 31.544 548.499 31.544H549.939V42.488H548.499C545.747 42.488 543.411 42.712 541.491 43.16C539.571 43.544 538.035 44.184 536.883 45.08C535.795 45.976 534.995 47.16 534.483 48.632C533.971 50.104 533.715 51.896 533.715 54.008ZM574.312 71.96C569.768 71.96 566.056 71 563.176 69.08C560.36 67.096 558.248 64.568 556.84 61.496C555.496 58.424 554.792 55.224 554.728 51.896C554.664 47.928 555.4 44.408 556.936 41.336C558.536 38.2 560.776 35.768 563.656 34.04C566.6 32.248 570.056 31.352 574.024 31.352C577.544 31.352 580.712 32.12 583.528 33.656C586.344 35.192 588.552 37.336 590.152 40.088C591.816 42.84 592.68 46.136 592.744 49.976C592.744 50.104 592.744 50.488 592.744 51.128C592.744 51.704 592.744 52.152 592.744 52.472H564.04C564.04 56.12 564.936 58.936 566.728 60.92C568.584 62.84 571.048 63.8 574.12 63.8C576.552 63.8 578.568 63.192 580.168 61.976C581.832 60.76 582.824 59.16 583.144 57.176H592.648C592.392 59.928 591.496 62.424 589.96 64.664C588.424 66.904 586.344 68.696 583.72 70.04C581.096 71.32 577.96 71.96 574.312 71.96ZM564.328 48.056H582.952C582.888 47.608 582.76 46.904 582.568 45.944C582.376 44.984 581.96 43.992 581.32 42.968C580.68 41.944 579.752 41.08 578.536 40.376C577.32 39.672 575.752 39.32 573.832 39.32C571.912 39.32 570.344 39.64 569.128 40.28C567.912 40.92 566.984 41.72 566.344 42.68C565.704 43.64 565.224 44.6 564.904 45.56C564.584 46.52 564.392 47.352 564.328 48.056Z" fill="white"/>
<path d="M9.86 146.352V127.38H12.164V146.352H9.86ZM7.088 147V144.984H14.936V147H7.088ZM7.088 128.748V126.732H14.936V128.748H7.088ZM19.2199 147V132.348H21.1999L21.5959 135.984H21.6679C21.7159 135.864 21.8239 135.612 21.9919 135.228C22.1839 134.82 22.4719 134.4 22.8559 133.968C23.2399 133.536 23.7559 133.164 24.4039 132.852C25.0759 132.516 25.9159 132.348 26.9239 132.348C27.9319 132.348 28.7719 132.504 29.4439 132.816C30.1159 133.104 30.6439 133.512 31.0279 134.04C31.4359 134.544 31.7359 135.12 31.9279 135.768C32.1199 136.416 32.2399 137.088 32.2879 137.784C32.3599 138.456 32.3959 139.116 32.3959 139.764V147H30.1639V139.764C30.1639 138.708 30.0439 137.784 29.8039 136.992C29.5879 136.176 29.1919 135.552 28.6159 135.12C28.0399 134.664 27.2239 134.436 26.1679 134.436C25.0879 134.436 24.2119 134.7 23.5399 135.228C22.8679 135.732 22.3759 136.416 22.0639 137.28C21.7519 138.12 21.5959 139.044 21.5959 140.052V147H19.2199ZM42.4935 147.36C41.1015 147.36 39.9255 147.036 38.9655 146.388C38.0295 145.716 37.3215 144.816 36.8415 143.688C36.3615 142.56 36.1215 141.288 36.1215 139.872C36.1215 138.408 36.3615 137.112 36.8415 135.984C37.3455 134.832 38.0655 133.944 39.0015 133.32C39.9615 132.672 41.1375 132.348 42.5295 132.348C43.5135 132.348 44.3415 132.516 45.0135 132.852C45.6855 133.164 46.2135 133.548 46.5975 134.004C47.0055 134.46 47.3055 134.88 47.4975 135.264C47.6895 135.648 47.8095 135.9 47.8575 136.02H47.9295V126.732H50.3055V147H48.3255L47.9655 143.76H47.8935C47.8455 143.88 47.7135 144.132 47.4975 144.516C47.2815 144.9 46.9575 145.308 46.5255 145.74C46.1175 146.172 45.5775 146.556 44.9055 146.892C44.2575 147.204 43.4535 147.36 42.4935 147.36ZM43.0695 145.308C44.0295 145.308 44.8695 145.092 45.5895 144.66C46.3095 144.228 46.8735 143.604 47.2815 142.788C47.6895 141.948 47.8935 140.976 47.8935 139.872C47.8935 138.768 47.7015 137.808 47.3175 136.992C46.9335 136.176 46.3935 135.552 45.6975 135.12C45.0015 134.688 44.1855 134.472 43.2495 134.472C42.1215 134.472 41.1975 134.736 40.4775 135.264C39.7575 135.768 39.2295 136.428 38.8935 137.244C38.5575 138.06 38.3895 138.936 38.3895 139.872C38.3895 140.784 38.5335 141.66 38.8215 142.5C39.1335 143.316 39.6375 143.988 40.3335 144.516C41.0295 145.044 41.9415 145.308 43.0695 145.308ZM54.4277 147V132.348H56.7677V147H54.4277ZM55.6157 130.152C55.0157 130.152 54.6077 129.996 54.3917 129.684C54.1757 129.372 54.0677 129.012 54.0677 128.604C54.0677 128.22 54.1757 127.884 54.3917 127.596C54.6077 127.284 55.0157 127.128 55.6157 127.128C56.2157 127.128 56.6117 127.284 56.8037 127.596C56.9957 127.884 57.0917 128.22 57.0917 128.604C57.0917 129.012 56.9957 129.372 56.8037 129.684C56.6117 129.996 56.2157 130.152 55.6157 130.152ZM71.0289 132.348H73.3329V132.852L67.7889 147H64.5129L58.9329 132.852V132.348H61.2369L66.1329 145.092H66.2049L71.0289 132.348ZM76.4752 147V132.348H78.8152V147H76.4752ZM77.6632 130.152C77.0632 130.152 76.6552 129.996 76.4392 129.684C76.2232 129.372 76.1152 129.012 76.1152 128.604C76.1152 128.22 76.2232 127.884 76.4392 127.596C76.6552 127.284 77.0632 127.128 77.6632 127.128C78.2632 127.128 78.6592 127.284 78.8512 127.596C79.0432 127.884 79.1392 128.22 79.1392 128.604C79.1392 129.012 79.0432 129.372 78.8512 129.684C78.6592 129.996 78.2632 130.152 77.6632 130.152ZM89.2604 147.36C87.8684 147.36 86.6924 147.036 85.7324 146.388C84.7964 145.716 84.0884 144.816 83.6084 143.688C83.1284 142.56 82.8884 141.288 82.8884 139.872C82.8884 138.408 83.1284 137.112 83.6084 135.984C84.1124 134.832 84.8324 133.944 85.7684 133.32C86.7284 132.672 87.9044 132.348 89.2964 132.348C90.2804 132.348 91.1084 132.516 91.7804 132.852C92.4524 133.164 92.9804 133.548 93.3644 134.004C93.7724 134.46 94.0724 134.88 94.2644 135.264C94.4564 135.648 94.5764 135.9 94.6244 136.02H94.6964V126.732H97.0724V147H95.0924L94.7324 143.76H94.6604C94.6124 143.88 94.4804 144.132 94.2644 144.516C94.0484 144.9 93.7244 145.308 93.2924 145.74C92.8844 146.172 92.3444 146.556 91.6724 146.892C91.0244 147.204 90.2204 147.36 89.2604 147.36ZM89.8364 145.308C90.7964 145.308 91.6364 145.092 92.3564 144.66C93.0764 144.228 93.6404 143.604 94.0484 142.788C94.4564 141.948 94.6604 140.976 94.6604 139.872C94.6604 138.768 94.4684 137.808 94.0844 136.992C93.7004 136.176 93.1604 135.552 92.4644 135.12C91.7684 134.688 90.9524 134.472 90.0164 134.472C88.8884 134.472 87.9644 134.736 87.2444 135.264C86.5244 135.768 85.9964 136.428 85.6604 137.244C85.3244 138.06 85.1564 138.936 85.1564 139.872C85.1564 140.784 85.3004 141.66 85.5884 142.5C85.9004 143.316 86.4044 143.988 87.1004 144.516C87.7964 145.044 88.7084 145.308 89.8364 145.308ZM106.127 147.36C105.191 147.36 104.387 147.216 103.715 146.928C103.067 146.64 102.527 146.256 102.095 145.776C101.687 145.272 101.375 144.708 101.159 144.084C100.943 143.436 100.787 142.764 100.691 142.068C100.619 141.348 100.583 140.628 100.583 139.908V132.348H102.887V139.944C102.887 140.904 102.983 141.792 103.175 142.608C103.391 143.424 103.787 144.072 104.363 144.552C104.939 145.032 105.791 145.272 106.919 145.272C107.999 145.272 108.839 145.02 109.439 144.516C110.063 144.012 110.519 143.376 110.807 142.608C111.095 141.816 111.263 140.988 111.311 140.124V132.348H113.687V147H111.707L111.311 143.724H111.239C111.143 144.036 110.975 144.396 110.735 144.804C110.519 145.212 110.207 145.608 109.799 145.992C109.391 146.376 108.875 146.7 108.251 146.964C107.651 147.228 106.943 147.36 106.127 147.36ZM123.929 147.36C122.321 147.36 120.989 147 119.933 146.28C118.901 145.536 118.133 144.588 117.629 143.436C117.149 142.26 116.909 141.048 116.909 139.8C116.909 138.432 117.173 137.184 117.701 136.056C118.253 134.904 119.045 133.992 120.077 133.32C121.133 132.648 122.393 132.312 123.857 132.312C125.129 132.312 126.245 132.588 127.205 133.14C128.189 133.668 128.969 134.436 129.545 135.444C130.145 136.452 130.481 137.64 130.553 139.008C130.577 139.104 130.589 139.248 130.589 139.44C130.589 139.608 130.589 139.764 130.589 139.908H119.141C119.141 141.612 119.549 142.956 120.365 143.94C121.205 144.9 122.381 145.38 123.893 145.38C125.021 145.38 125.981 145.092 126.773 144.516C127.589 143.94 128.093 143.16 128.285 142.176H130.553C130.385 143.16 130.013 144.048 129.437 144.84C128.861 145.632 128.105 146.256 127.169 146.712C126.233 147.144 125.153 147.36 123.929 147.36ZM119.213 138.648H128.213C128.213 138.264 128.129 137.832 127.961 137.352C127.817 136.848 127.577 136.368 127.241 135.912C126.905 135.432 126.461 135.036 125.909 134.724C125.357 134.412 124.661 134.256 123.821 134.256C123.077 134.256 122.429 134.388 121.877 134.652C121.325 134.892 120.857 135.228 120.473 135.66C120.113 136.068 119.825 136.536 119.609 137.064C119.417 137.592 119.285 138.12 119.213 138.648ZM134.562 147V126.732H136.83V147H134.562ZM141.121 147V126.732H143.389V147H141.121ZM153.836 147.36C152.228 147.36 150.896 147 149.84 146.28C148.808 145.536 148.04 144.588 147.536 143.436C147.056 142.26 146.816 141.048 146.816 139.8C146.816 138.432 147.08 137.184 147.608 136.056C148.16 134.904 148.952 133.992 149.984 133.32C151.04 132.648 152.3 132.312 153.764 132.312C155.036 132.312 156.152 132.588 157.112 133.14C158.096 133.668 158.876 134.436 159.452 135.444C160.052 136.452 160.388 137.64 160.46 139.008C160.484 139.104 160.496 139.248 160.496 139.44C160.496 139.608 160.496 139.764 160.496 139.908H149.048C149.048 141.612 149.456 142.956 150.272 143.94C151.112 144.9 152.288 145.38 153.8 145.38C154.928 145.38 155.888 145.092 156.68 144.516C157.496 143.94 158 143.16 158.192 142.176H160.46C160.292 143.16 159.92 144.048 159.344 144.84C158.768 145.632 158.012 146.256 157.076 146.712C156.14 147.144 155.06 147.36 153.836 147.36ZM149.12 138.648H158.12C158.12 138.264 158.036 137.832 157.868 137.352C157.724 136.848 157.484 136.368 157.148 135.912C156.812 135.432 156.368 135.036 155.816 134.724C155.264 134.412 154.568 134.256 153.728 134.256C152.984 134.256 152.336 134.388 151.784 134.652C151.232 134.892 150.764 135.228 150.38 135.66C150.02 136.068 149.732 136.536 149.516 137.064C149.324 137.592 149.192 138.12 149.12 138.648ZM181.372 147.468C180.316 147.468 179.272 147.336 178.24 147.072C177.232 146.808 176.308 146.412 175.468 145.884C174.652 145.332 173.992 144.624 173.488 143.76C173.008 142.896 172.768 141.876 172.768 140.7H175.072C175.072 140.772 175.096 140.976 175.144 141.312C175.192 141.648 175.312 142.044 175.504 142.5C175.72 142.956 176.056 143.4 176.512 143.832C176.968 144.264 177.604 144.624 178.42 144.912C179.236 145.2 180.28 145.344 181.552 145.344C182.608 145.344 183.472 145.224 184.144 144.984C184.84 144.72 185.368 144.408 185.728 144.048C186.112 143.664 186.376 143.292 186.52 142.932C186.664 142.548 186.736 142.236 186.736 141.996C186.76 141.156 186.532 140.484 186.052 139.98C185.572 139.452 184.924 139.044 184.108 138.756C183.316 138.444 182.44 138.168 181.48 137.928C180.52 137.688 179.56 137.436 178.6 137.172C177.664 136.884 176.8 136.524 176.008 136.092C175.216 135.66 174.592 135.084 174.136 134.364C173.68 133.62 173.476 132.684 173.524 131.556C173.572 130.476 173.944 129.552 174.64 128.784C175.336 128.016 176.272 127.428 177.448 127.02C178.624 126.588 179.944 126.372 181.408 126.372C182.8 126.372 184.072 126.624 185.224 127.128C186.376 127.608 187.3 128.34 187.996 129.324C188.692 130.308 189.016 131.532 188.968 132.996H186.7C186.748 132.084 186.58 131.34 186.196 130.764C185.812 130.188 185.32 129.744 184.72 129.432C184.12 129.096 183.496 128.868 182.848 128.748C182.224 128.604 181.672 128.532 181.192 128.532C179.68 128.532 178.432 128.832 177.448 129.432C176.488 130.032 175.984 130.812 175.936 131.772C175.936 132.612 176.176 133.284 176.656 133.788C177.136 134.292 177.772 134.7 178.564 135.012C179.356 135.3 180.232 135.552 181.192 135.768C182.176 135.984 183.136 136.236 184.072 136.524C185.032 136.788 185.908 137.136 186.7 137.568C187.492 138 188.116 138.588 188.572 139.332C189.028 140.076 189.232 141.024 189.184 142.176C189.136 143.304 188.764 144.264 188.068 145.056C187.372 145.824 186.448 146.424 185.296 146.856C184.144 147.264 182.836 147.468 181.372 147.468ZM199.141 147.36C197.581 147.36 196.273 147.036 195.217 146.388C194.185 145.74 193.405 144.852 192.877 143.724C192.373 142.596 192.121 141.312 192.121 139.872C192.121 138.408 192.373 137.112 192.877 135.984C193.405 134.832 194.185 133.932 195.217 133.284C196.273 132.636 197.581 132.312 199.141 132.312C201.421 132.312 203.161 133.008 204.361 134.4C205.561 135.768 206.161 137.592 206.161 139.872C206.161 141.288 205.909 142.56 205.405 143.688C204.901 144.816 204.133 145.716 203.101 146.388C202.069 147.036 200.749 147.36 199.141 147.36ZM199.141 145.344C200.413 145.344 201.385 145.068 202.057 144.516C202.729 143.964 203.197 143.268 203.461 142.428C203.749 141.564 203.893 140.688 203.893 139.8C203.893 138.912 203.749 138.036 203.461 137.172C203.197 136.308 202.729 135.6 202.057 135.048C201.385 134.496 200.413 134.22 199.141 134.22C197.917 134.22 196.945 134.496 196.225 135.048C195.529 135.6 195.049 136.308 194.785 137.172C194.521 138.036 194.389 138.912 194.389 139.8C194.389 140.688 194.521 141.564 194.785 142.428C195.049 143.268 195.529 143.964 196.225 144.516C196.945 145.068 197.917 145.344 199.141 145.344ZM210.885 147.108V129.108C210.885 128.268 211.065 127.608 211.425 127.128C211.785 126.648 212.397 126.408 213.261 126.408H217.617V128.316H213.225V147.108H210.885ZM208.617 134.076V132.348H217.365V134.076H208.617ZM223.369 147C222.505 147 221.893 146.76 221.533 146.28C221.173 145.8 220.993 145.14 220.993 144.3V133.752H223.225V145.128H226.645V147H223.369ZM218.689 134.076V132.348C219.265 132.348 219.721 132.324 220.057 132.276C220.417 132.204 220.681 132.06 220.849 131.844C221.017 131.604 221.125 131.22 221.173 130.692C221.221 130.164 221.245 129.456 221.245 128.568H223.225V132.348H226.609V134.076H218.689ZM232.858 147L228.934 132.852V132.312H231.166L234.478 145.02H234.55L238.33 132.312H240.382L244.27 145.02H244.342L247.582 132.312H249.814V132.852L245.926 147H242.614L239.41 136.344H239.338L236.17 147H232.858ZM257.616 147.324C256.272 147.324 255.168 147 254.304 146.352C253.44 145.68 252.792 144.78 252.36 143.652C251.952 142.524 251.748 141.24 251.748 139.8C251.748 138.312 251.964 137.004 252.396 135.876C252.828 134.748 253.476 133.86 254.34 133.212C255.228 132.54 256.32 132.204 257.616 132.204C258.384 132.204 259.044 132.312 259.596 132.528C260.172 132.72 260.664 132.984 261.072 133.32C261.48 133.656 261.816 134.016 262.08 134.4C262.368 134.76 262.584 135.108 262.728 135.444H262.764V132.348H265.14V147H263.16L262.8 144.156H262.728C262.56 144.516 262.344 144.888 262.08 145.272C261.816 145.632 261.468 145.968 261.036 146.28C260.628 146.592 260.136 146.844 259.56 147.036C259.008 147.228 258.36 147.324 257.616 147.324ZM258.516 145.272C259.524 145.272 260.328 145.056 260.928 144.624C261.552 144.168 262.008 143.532 262.296 142.716C262.584 141.9 262.728 140.94 262.728 139.836C262.728 138.66 262.572 137.664 262.26 136.848C261.972 136.032 261.516 135.42 260.892 135.012C260.268 134.58 259.476 134.364 258.516 134.364C257.46 134.364 256.596 134.604 255.924 135.084C255.276 135.564 254.808 136.212 254.52 137.028C254.232 137.844 254.088 138.768 254.088 139.8C254.088 140.856 254.232 141.804 254.52 142.644C254.832 143.46 255.312 144.108 255.96 144.588C256.632 145.044 257.484 145.272 258.516 145.272ZM268.738 147V132.348H270.826L271.078 136.56L271.042 139.728V147H268.738ZM271.042 140.16L270.934 136.956C270.982 136.404 271.126 135.852 271.366 135.3C271.606 134.748 271.942 134.256 272.374 133.824C272.83 133.368 273.406 133.008 274.102 132.744C274.798 132.48 275.614 132.348 276.55 132.348H277.234V134.904H276.514C275.362 134.904 274.426 135.036 273.706 135.3C272.986 135.54 272.434 135.9 272.05 136.38C271.666 136.836 271.402 137.388 271.258 138.036C271.114 138.684 271.042 139.392 271.042 140.16ZM286.449 147.36C284.841 147.36 283.509 147 282.453 146.28C281.421 145.536 280.653 144.588 280.149 143.436C279.669 142.26 279.429 141.048 279.429 139.8C279.429 138.432 279.693 137.184 280.221 136.056C280.773 134.904 281.565 133.992 282.597 133.32C283.653 132.648 284.913 132.312 286.377 132.312C287.649 132.312 288.765 132.588 289.725 133.14C290.709 133.668 291.489 134.436 292.065 135.444C292.665 136.452 293.001 137.64 293.073 139.008C293.097 139.104 293.109 139.248 293.109 139.44C293.109 139.608 293.109 139.764 293.109 139.908H281.661C281.661 141.612 282.069 142.956 282.885 143.94C283.725 144.9 284.901 145.38 286.413 145.38C287.541 145.38 288.501 145.092 289.293 144.516C290.109 143.94 290.613 143.16 290.805 142.176H293.073C292.905 143.16 292.533 144.048 291.957 144.84C291.381 145.632 290.625 146.256 289.689 146.712C288.753 147.144 287.673 147.36 286.449 147.36ZM281.733 138.648H290.733C290.733 138.264 290.649 137.832 290.481 137.352C290.337 136.848 290.097 136.368 289.761 135.912C289.425 135.432 288.981 135.036 288.429 134.724C287.877 134.412 287.181 134.256 286.341 134.256C285.597 134.256 284.949 134.388 284.397 134.652C283.845 134.892 283.377 135.228 282.993 135.66C282.633 136.068 282.345 136.536 282.129 137.064C281.937 137.592 281.805 138.12 281.733 138.648ZM306.712 146.64V126.732H309.016V146.64H306.712ZM306.712 147V144.984H320.248V147H306.712ZM329.679 147.36C328.119 147.36 326.811 147.036 325.755 146.388C324.723 145.74 323.943 144.852 323.415 143.724C322.911 142.596 322.659 141.312 322.659 139.872C322.659 138.408 322.911 137.112 323.415 135.984C323.943 134.832 324.723 133.932 325.755 133.284C326.811 132.636 328.119 132.312 329.679 132.312C331.959 132.312 333.699 133.008 334.899 134.4C336.099 135.768 336.699 137.592 336.699 139.872C336.699 141.288 336.447 142.56 335.943 143.688C335.439 144.816 334.671 145.716 333.639 146.388C332.607 147.036 331.287 147.36 329.679 147.36ZM329.679 145.344C330.951 145.344 331.923 145.068 332.595 144.516C333.267 143.964 333.735 143.268 333.999 142.428C334.287 141.564 334.431 140.688 334.431 139.8C334.431 138.912 334.287 138.036 333.999 137.172C333.735 136.308 333.267 135.6 332.595 135.048C331.923 134.496 330.951 134.22 329.679 134.22C328.455 134.22 327.483 134.496 326.763 135.048C326.067 135.6 325.587 136.308 325.323 137.172C325.059 138.036 324.927 138.912 324.927 139.8C324.927 140.688 325.059 141.564 325.323 142.428C325.587 143.268 326.067 143.964 326.763 144.516C327.483 145.068 328.455 145.344 329.679 145.344ZM327.123 130.368C326.451 130.368 325.995 130.2 325.755 129.864C325.515 129.504 325.395 129.096 325.395 128.64C325.395 128.208 325.515 127.824 325.755 127.488C325.995 127.152 326.451 126.984 327.123 126.984C327.795 126.984 328.239 127.152 328.455 127.488C328.695 127.824 328.815 128.208 328.815 128.64C328.815 129.096 328.695 129.504 328.455 129.864C328.239 130.2 327.795 130.368 327.123 130.368ZM332.775 130.368C332.079 130.368 331.611 130.2 331.371 129.864C331.155 129.504 331.047 129.096 331.047 128.64C331.047 128.208 331.155 127.824 331.371 127.488C331.611 127.152 332.079 126.984 332.775 126.984C333.447 126.984 333.891 127.152 334.107 127.488C334.323 127.824 334.431 128.208 334.431 128.64C334.431 129.096 334.323 129.504 334.107 129.864C333.891 130.2 333.447 130.368 332.775 130.368ZM346.032 147.36C345.216 147.36 344.472 147.24 343.8 147C343.128 146.784 342.54 146.484 342.036 146.1C341.556 145.716 341.136 145.308 340.776 144.876C340.44 144.42 340.188 143.964 340.02 143.508C339.852 143.052 339.768 142.644 339.768 142.284H342C342 142.308 342.024 142.488 342.072 142.824C342.12 143.16 342.264 143.544 342.504 143.976C342.744 144.408 343.14 144.792 343.692 145.128C344.244 145.44 345.024 145.596 346.032 145.596C346.752 145.596 347.4 145.512 347.976 145.344C348.552 145.176 348.996 144.912 349.308 144.552C349.644 144.192 349.8 143.748 349.776 143.22C349.776 142.524 349.536 141.996 349.056 141.636C348.6 141.252 348 140.964 347.256 140.772C346.512 140.556 345.732 140.352 344.916 140.16C344.1 139.968 343.32 139.728 342.576 139.44C341.832 139.128 341.232 138.696 340.776 138.144C340.32 137.592 340.104 136.824 340.128 135.84C340.152 134.64 340.692 133.692 341.748 132.996C342.828 132.276 344.208 131.916 345.888 131.916C346.584 131.916 347.292 132 348.012 132.168C348.756 132.336 349.428 132.612 350.028 132.996C350.652 133.356 351.144 133.872 351.504 134.544C351.864 135.192 352.02 136.008 351.972 136.992H349.812C349.836 136.32 349.716 135.78 349.452 135.372C349.212 134.94 348.876 134.616 348.444 134.4C348.036 134.16 347.592 134.004 347.112 133.932C346.656 133.836 346.224 133.788 345.816 133.788C344.784 133.788 343.932 133.98 343.26 134.364C342.612 134.748 342.288 135.288 342.288 135.984C342.288 136.632 342.516 137.136 342.972 137.496C343.452 137.856 344.052 138.144 344.772 138.36C345.516 138.552 346.296 138.744 347.112 138.936C347.952 139.104 348.744 139.344 349.488 139.656C350.232 139.968 350.832 140.412 351.288 140.988C351.768 141.564 352.008 142.356 352.008 143.364C352.008 144.3 351.744 145.068 351.216 145.668C350.712 146.244 350.004 146.676 349.092 146.964C348.204 147.228 347.184 147.36 346.032 147.36ZM360.523 147.36C359.587 147.36 358.783 147.216 358.111 146.928C357.463 146.64 356.923 146.256 356.491 145.776C356.083 145.272 355.771 144.708 355.555 144.084C355.339 143.436 355.183 142.764 355.087 142.068C355.015 141.348 354.979 140.628 354.979 139.908V132.348H357.283V139.944C357.283 140.904 357.379 141.792 357.571 142.608C357.787 143.424 358.183 144.072 358.759 144.552C359.335 145.032 360.187 145.272 361.315 145.272C362.395 145.272 363.235 145.02 363.835 144.516C364.459 144.012 364.915 143.376 365.203 142.608C365.491 141.816 365.659 140.988 365.707 140.124V132.348H368.083V147H366.103L365.707 143.724H365.635C365.539 144.036 365.371 144.396 365.131 144.804C364.915 145.212 364.603 145.608 364.195 145.992C363.787 146.376 363.271 146.7 362.647 146.964C362.047 147.228 361.339 147.36 360.523 147.36ZM371.666 147V132.348H373.646L374.042 135.984H374.114C374.162 135.864 374.27 135.612 374.438 135.228C374.63 134.82 374.918 134.4 375.302 133.968C375.686 133.536 376.202 133.164 376.85 132.852C377.522 132.516 378.362 132.348 379.37 132.348C380.378 132.348 381.218 132.504 381.89 132.816C382.562 133.104 383.09 133.512 383.474 134.04C383.882 134.544 384.182 135.12 384.374 135.768C384.566 136.416 384.686 137.088 384.734 137.784C384.806 138.456 384.842 139.116 384.842 139.764V147H382.61V139.764C382.61 138.708 382.49 137.784 382.25 136.992C382.034 136.176 381.638 135.552 381.062 135.12C380.486 134.664 379.67 134.436 378.614 134.436C377.534 134.436 376.658 134.7 375.986 135.228C375.314 135.732 374.822 136.416 374.51 137.28C374.198 138.12 374.042 139.044 374.042 140.052V147H371.666ZM391.879 153.048V150.852H399.187V143.76H399.115C399.067 143.88 398.935 144.132 398.719 144.516C398.527 144.9 398.215 145.308 397.783 145.74C397.375 146.172 396.835 146.556 396.163 146.892C395.515 147.204 394.723 147.36 393.787 147.36C392.371 147.36 391.183 147.036 390.223 146.388C389.287 145.716 388.579 144.816 388.099 143.688C387.619 142.56 387.379 141.288 387.379 139.872C387.379 138.408 387.619 137.112 388.099 135.984C388.579 134.832 389.299 133.944 390.259 133.32C391.219 132.672 392.407 132.348 393.823 132.348C394.783 132.348 395.599 132.516 396.271 132.852C396.943 133.164 397.471 133.548 397.855 134.004C398.263 134.46 398.563 134.88 398.755 135.264C398.947 135.648 399.067 135.9 399.115 136.02H399.187V132.348H401.563V149.52C401.563 150.288 401.467 150.936 401.275 151.464C401.107 151.992 400.795 152.388 400.339 152.652C399.907 152.916 399.319 153.048 398.575 153.048H391.879ZM394.291 145.308C395.251 145.308 396.091 145.092 396.811 144.66C397.555 144.228 398.119 143.604 398.503 142.788C398.911 141.948 399.115 140.976 399.115 139.872C399.115 138.768 398.923 137.808 398.539 136.992C398.179 136.176 397.651 135.552 396.955 135.12C396.259 134.688 395.443 134.472 394.507 134.472C393.379 134.472 392.455 134.736 391.735 135.264C391.015 135.768 390.487 136.428 390.151 137.244C389.815 138.06 389.647 138.936 389.647 139.872C389.647 140.784 389.791 141.66 390.079 142.5C390.391 143.316 390.883 143.988 391.555 144.516C392.251 145.044 393.163 145.308 394.291 145.308ZM411.834 147.36C410.226 147.36 408.894 147 407.838 146.28C406.806 145.536 406.038 144.588 405.534 143.436C405.054 142.26 404.814 141.048 404.814 139.8C404.814 138.432 405.078 137.184 405.606 136.056C406.158 134.904 406.95 133.992 407.982 133.32C409.038 132.648 410.298 132.312 411.762 132.312C413.034 132.312 414.15 132.588 415.11 133.14C416.094 133.668 416.874 134.436 417.45 135.444C418.05 136.452 418.386 137.64 418.458 139.008C418.482 139.104 418.494 139.248 418.494 139.44C418.494 139.608 418.494 139.764 418.494 139.908H407.046C407.046 141.612 407.454 142.956 408.27 143.94C409.11 144.9 410.286 145.38 411.798 145.38C412.926 145.38 413.886 145.092 414.678 144.516C415.494 143.94 415.998 143.16 416.19 142.176H418.458C418.29 143.16 417.918 144.048 417.342 144.84C416.766 145.632 416.01 146.256 415.074 146.712C414.138 147.144 413.058 147.36 411.834 147.36ZM407.118 138.648H416.118C416.118 138.264 416.034 137.832 415.866 137.352C415.722 136.848 415.482 136.368 415.146 135.912C414.81 135.432 414.366 135.036 413.814 134.724C413.262 134.412 412.566 134.256 411.726 134.256C410.982 134.256 410.334 134.388 409.782 134.652C409.23 134.892 408.762 135.228 408.378 135.66C408.018 136.068 407.73 136.536 407.514 137.064C407.322 137.592 407.19 138.12 407.118 138.648ZM421.963 147V132.348H423.943L424.339 135.984H424.411C424.459 135.864 424.567 135.612 424.735 135.228C424.927 134.82 425.215 134.4 425.599 133.968C425.983 133.536 426.499 133.164 427.147 132.852C427.819 132.516 428.659 132.348 429.667 132.348C430.675 132.348 431.515 132.504 432.187 132.816C432.859 133.104 433.387 133.512 433.771 134.04C434.179 134.544 434.479 135.12 434.671 135.768C434.863 136.416 434.983 137.088 435.031 137.784C435.103 138.456 435.139 139.116 435.139 139.764V147H432.907V139.764C432.907 138.708 432.787 137.784 432.547 136.992C432.331 136.176 431.935 135.552 431.359 135.12C430.783 134.664 429.967 134.436 428.911 134.436C427.831 134.436 426.955 134.7 426.283 135.228C425.611 135.732 425.119 136.416 424.807 137.28C424.495 138.12 424.339 139.044 424.339 140.052V147H421.963ZM449.035 147.108V129.108C449.035 128.268 449.215 127.608 449.575 127.128C449.935 126.648 450.547 126.408 451.411 126.408H455.767V128.316H451.375V147.108H449.035ZM446.767 134.076V132.348H455.515V134.076H446.767ZM463.283 147.36C462.347 147.36 461.543 147.216 460.871 146.928C460.223 146.64 459.683 146.256 459.251 145.776C458.843 145.272 458.531 144.708 458.315 144.084C458.099 143.436 457.943 142.764 457.847 142.068C457.775 141.348 457.739 140.628 457.739 139.908V132.348H460.043V139.944C460.043 140.904 460.139 141.792 460.331 142.608C460.547 143.424 460.943 144.072 461.519 144.552C462.095 145.032 462.947 145.272 464.075 145.272C465.155 145.272 465.995 145.02 466.595 144.516C467.219 144.012 467.675 143.376 467.963 142.608C468.251 141.816 468.419 140.988 468.467 140.124V132.348H470.843V147H468.863L468.467 143.724H468.395C468.299 144.036 468.131 144.396 467.891 144.804C467.675 145.212 467.363 145.608 466.955 145.992C466.547 146.376 466.031 146.7 465.407 146.964C464.807 147.228 464.099 147.36 463.283 147.36ZM461.699 130.368C461.027 130.368 460.571 130.2 460.331 129.864C460.091 129.504 459.971 129.096 459.971 128.64C459.971 128.208 460.091 127.824 460.331 127.488C460.571 127.152 461.027 126.984 461.699 126.984C462.371 126.984 462.815 127.152 463.031 127.488C463.271 127.824 463.391 128.208 463.391 128.64C463.391 129.096 463.271 129.504 463.031 129.864C462.815 130.2 462.371 130.368 461.699 130.368ZM467.351 130.368C466.655 130.368 466.187 130.2 465.947 129.864C465.731 129.504 465.623 129.096 465.623 128.64C465.623 128.208 465.731 127.824 465.947 127.488C466.187 127.152 466.655 126.984 467.351 126.984C468.023 126.984 468.467 127.152 468.683 127.488C468.899 127.824 469.007 128.208 469.007 128.64C469.007 129.096 468.899 129.504 468.683 129.864C468.467 130.2 468.023 130.368 467.351 130.368ZM474.786 147V132.348H476.874L477.126 136.56L477.09 139.728V147H474.786ZM477.09 140.16L476.982 136.956C477.03 136.404 477.174 135.852 477.414 135.3C477.654 134.748 477.99 134.256 478.422 133.824C478.878 133.368 479.454 133.008 480.15 132.744C480.846 132.48 481.662 132.348 482.598 132.348H483.282V134.904H482.562C481.41 134.904 480.474 135.036 479.754 135.3C479.034 135.54 478.482 135.9 478.098 136.38C477.714 136.836 477.45 137.388 477.306 138.036C477.162 138.684 477.09 139.392 477.09 140.16ZM498.418 146.352V127.38H500.722V146.352H498.418ZM495.646 147V144.984H503.494V147H495.646ZM495.646 128.748V126.732H503.494V128.748H495.646ZM507.922 147V126.732H510.262V135.984H510.334C510.382 135.864 510.49 135.612 510.658 135.228C510.85 134.82 511.138 134.4 511.522 133.968C511.906 133.536 512.422 133.164 513.07 132.852C513.718 132.516 514.534 132.348 515.518 132.348C516.526 132.348 517.366 132.504 518.038 132.816C518.71 133.104 519.25 133.512 519.658 134.04C520.066 134.568 520.366 135.168 520.558 135.84C520.774 136.488 520.918 137.148 520.99 137.82C521.062 138.492 521.098 139.14 521.098 139.764V147H518.83V139.764C518.83 138.708 518.71 137.784 518.47 136.992C518.254 136.176 517.858 135.552 517.282 135.12C516.73 134.664 515.926 134.436 514.87 134.436C513.766 134.436 512.878 134.7 512.206 135.228C511.534 135.732 511.042 136.416 510.73 137.28C510.418 138.12 510.262 139.044 510.262 140.052V147H507.922ZM524.998 147V132.348H527.086L527.338 136.56L527.302 139.728V147H524.998ZM527.302 140.16L527.194 136.956C527.242 136.404 527.386 135.852 527.626 135.3C527.866 134.748 528.202 134.256 528.634 133.824C529.09 133.368 529.666 133.008 530.362 132.744C531.058 132.48 531.874 132.348 532.81 132.348H533.494V134.904H532.774C531.622 134.904 530.686 135.036 529.966 135.3C529.246 135.54 528.694 135.9 528.31 136.38C527.926 136.836 527.662 137.388 527.518 138.036C527.374 138.684 527.302 139.392 527.302 140.16ZM548.451 140.196V137.46L559.287 126.732H562.311V127.092L548.451 140.196ZM546.291 147.036V126.732H548.631V147.036H546.291ZM560.043 147L551.547 136.272L553.203 134.652L562.743 146.64V147H560.043ZM566.268 147V126.732H570.264L576.852 145.956H576.924L583.404 126.732H587.4V147H585.06L585.168 127.92H585.096L578.544 147H575.124L568.572 127.92H568.5L568.608 147H566.268ZM600.372 147.504C597.66 147.504 595.572 146.712 594.108 145.128C592.668 143.52 591.948 141.264 591.948 138.36V126.732H594.324V138.36C594.324 139.56 594.48 140.604 594.792 141.492C595.104 142.356 595.524 143.076 596.052 143.652C596.604 144.228 597.24 144.648 597.96 144.912C598.704 145.176 599.508 145.308 600.372 145.308C601.62 145.308 602.688 145.08 603.576 144.624C604.488 144.144 605.196 143.388 605.7 142.356C606.204 141.324 606.456 139.992 606.456 138.36V126.732H608.832V138.36C608.832 141.312 608.112 143.58 606.672 145.164C605.256 146.724 603.156 147.504 600.372 147.504Z" fill="#6E7797"/>
</svg>
