<svg viewBox="0 0 609 87" fill="none" xmlns="http://www.w3.org/2000/svg">
<path d="M15.9256 73.12C13.739 73.12 11.7656 72.32 10.0056 70.72C8.29896 69.12 7.44563 66.4 7.44563 62.56C7.44563 59.7333 7.97896 56.88 9.04562 54C10.1656 51.12 11.6323 48.4 13.4456 45.84C15.3123 43.2267 17.3923 40.9333 19.6856 38.96C21.979 36.9333 24.3256 35.3333 26.7256 34.16C29.179 32.9867 31.499 32.4 33.6856 32.4C34.7523 32.4 35.739 32.6133 36.6456 33.04C37.6056 33.4667 38.4856 34.0267 39.2856 34.72L45.2856 32.08L46.1656 32.64L39.3656 62.48C38.939 64.1867 38.7256 65.44 38.7256 66.24C38.7256 67.36 39.259 67.92 40.3256 67.92C41.0723 67.92 41.899 67.6267 42.8056 67.04C43.7123 66.4 44.7256 65.5467 45.8456 64.48L46.8056 65.44C46.0056 66.6667 45.019 67.8667 43.8456 69.04C42.6723 70.2133 41.339 71.2 39.8456 72C38.4056 72.7467 36.8856 73.12 35.2856 73.12C33.6323 73.12 32.2456 72.6133 31.1256 71.6C30.0056 70.5333 29.4456 68.9067 29.4456 66.72C29.4456 65.9733 29.499 65.1733 29.6056 64.32C27.419 66.7733 25.1256 68.8533 22.7256 70.56C20.3256 72.2667 18.059 73.12 15.9256 73.12ZM16.7256 58.88C16.7256 61.6 17.1523 63.5733 18.0056 64.8C18.9123 65.9733 20.1123 66.56 21.6056 66.56C22.8856 66.56 24.1923 66.16 25.5256 65.36C26.859 64.5067 28.3523 63.2533 30.0056 61.6C30.059 61.28 30.139 60.8533 30.2456 60.32L35.2056 37.76C34.5123 37.0667 33.7123 36.5867 32.8056 36.32C31.899 36 31.0456 35.84 30.2456 35.84C28.059 35.84 25.659 37.2 23.0456 39.92C21.179 41.9467 19.659 44.72 18.4856 48.24C17.3123 51.7067 16.7256 55.2533 16.7256 58.88ZM51.7425 72.64L50.9425 71.92L57.0225 42.88C57.5025 40.7467 56.7025 39.2533 54.6225 38.4L53.4225 37.92L53.5825 36.56L67.7425 32.32L68.6225 33.12L66.8625 42.16C69.6358 39.2267 72.4625 36.88 75.3425 35.12C78.2225 33.3067 80.9158 32.4 83.4225 32.4C85.1292 32.4 86.5158 32.9333 87.5825 34C88.7025 35.0133 89.2625 36.5867 89.2625 38.72C89.2625 39.8933 89.1558 41.0933 88.9425 42.32C88.7292 43.4933 88.4625 44.72 88.1425 46L84.0625 62.4C83.8492 63.2533 83.6625 64 83.5025 64.64C83.3958 65.2267 83.3425 65.7333 83.3425 66.16C83.3425 67.28 83.7958 67.84 84.7025 67.84C86.0892 67.84 87.8492 66.72 89.9825 64.48L91.1025 65.6C89.7692 67.5733 88.0358 69.3333 85.9025 70.88C83.7692 72.3733 81.3958 73.12 78.7825 73.12C77.1292 73.12 75.8225 72.72 74.8625 71.92C73.9025 71.12 73.4225 70.0267 73.4225 68.64C73.4225 67.52 73.5558 66.4 73.8225 65.28C74.0892 64.1067 74.4092 62.8533 74.7825 61.52L77.9025 48.88C78.3292 47.28 78.6758 45.84 78.9425 44.56C79.2092 43.28 79.3425 42.1333 79.3425 41.12C79.3425 40.0533 79.1025 39.3333 78.6225 38.96C78.1958 38.5333 77.6092 38.32 76.8625 38.32C75.5825 38.32 74.0358 38.88 72.2225 40C70.4625 41.0667 68.4625 42.7733 66.2225 45.12L64.0625 54.96C63.4758 57.7867 62.9158 60.6133 62.3825 63.44C61.8492 66.2667 61.3158 69.12 60.7825 72L51.7425 72.64ZM103.414 73.12C101.334 73.12 99.4944 72.32 97.8944 70.72C96.2944 69.0667 95.4944 66.24 95.4944 62.24C95.4944 59.4667 96.001 56.6667 97.0144 53.84C98.081 51.0133 99.4944 48.32 101.254 45.76C103.068 43.2 105.094 40.9333 107.334 38.96C109.574 36.9333 111.921 35.3333 114.374 34.16C116.828 32.9867 119.201 32.4 121.494 32.4C122.614 32.4 123.654 32.5867 124.614 32.96L125.814 26.8C126.294 24.4 125.414 22.8267 123.174 22.08L121.574 21.52L121.814 20.16L136.534 15.84L137.254 16.48L127.574 62.48C127.414 63.3333 127.281 64.0533 127.174 64.64C127.068 65.2267 127.014 65.7867 127.014 66.32C127.014 67.44 127.521 68 128.534 68C129.121 68 129.921 67.68 130.934 67.04C131.948 66.4 132.988 65.4933 134.054 64.32L135.174 65.52C133.894 67.4933 132.188 69.2533 130.054 70.8C127.921 72.3467 125.654 73.12 123.254 73.12C121.548 73.12 120.188 72.5867 119.174 71.52C118.214 70.4533 117.734 69.04 117.734 67.28C117.681 66.3733 117.734 65.3067 117.894 64.08C115.708 66.7467 113.308 68.9333 110.694 70.64C108.081 72.2933 105.654 73.12 103.414 73.12ZM104.934 59.36C104.934 62.0267 105.361 63.9467 106.214 65.12C107.121 66.2933 108.268 66.88 109.654 66.88C110.934 66.88 112.268 66.4267 113.654 65.52C115.094 64.56 116.694 63.0667 118.454 61.04V60.88L123.174 37.76C121.788 36.5867 120.214 36 118.454 36C117.121 36 115.841 36.32 114.614 36.96C113.441 37.6 112.348 38.48 111.334 39.6C110.108 40.9333 108.988 42.72 107.974 44.96C107.014 47.1467 106.268 49.52 105.734 52.08C105.201 54.5867 104.934 57.0133 104.934 59.36ZM139.243 72.64L138.443 71.92L144.443 42.96C144.709 41.68 144.629 40.6933 144.203 40C143.776 39.2533 143.029 38.6933 141.963 38.32L140.842 37.92L141.083 36.56L154.363 32.32L155.323 33.2L153.163 45.76C154.336 43.3067 155.669 41.0667 157.163 39.04C158.656 37.0133 160.203 35.4133 161.803 34.24C163.456 33.0133 165.083 32.4 166.683 32.4C168.283 32.4 169.563 32.8267 170.523 33.68C171.536 34.5333 172.043 35.6533 172.043 37.04C172.043 38.5333 171.616 39.7333 170.763 40.64C169.909 41.5467 168.763 42 167.323 42C165.083 42 163.003 40.88 161.083 38.64C159.163 40.1867 157.509 42.1067 156.122 44.4C154.736 46.64 153.429 49.0667 152.203 51.68L151.563 54.96C151.029 57.7867 150.469 60.6133 149.883 63.44C149.349 66.2667 148.816 69.12 148.283 72L139.243 72.64ZM186.04 27.68C184.547 27.68 183.267 27.2 182.2 26.24C181.133 25.28 180.6 23.9733 180.6 22.32C180.6 20.56 181.24 19.0933 182.52 17.92C183.8 16.7467 185.24 16.16 186.84 16.16C188.387 16.16 189.667 16.6667 190.68 17.68C191.693 18.64 192.2 19.8933 192.2 21.44C192.2 23.1467 191.56 24.6133 190.28 25.84C189.053 27.0667 187.64 27.68 186.04 27.68ZM178.68 73.12C177.08 73.12 175.747 72.72 174.68 71.92C173.667 71.0667 173.16 69.84 173.16 68.24C173.16 67.3333 173.267 66.24 173.48 64.96C173.693 63.68 173.933 62.3733 174.2 61.04L177.96 42.96C178.44 40.72 177.613 39.2 175.48 38.4L174.36 37.92L174.52 36.48L188.92 32.32L189.72 33.12L183.64 61.68C183.427 62.5867 183.267 63.3867 183.16 64.08C183.053 64.72 183 65.3333 183 65.92C183 67.0933 183.533 67.68 184.6 67.68C185.88 67.68 187.56 66.6667 189.64 64.64L190.68 65.68C189.347 67.6533 187.667 69.3867 185.64 70.88C183.667 72.3733 181.347 73.12 178.68 73.12ZM195.024 72.64L194.224 71.92L200.304 42.88C200.784 40.7467 199.984 39.2533 197.904 38.4L196.704 37.92L196.864 36.56L211.024 32.32L211.904 33.12L210.144 42.16C212.917 39.2267 215.744 36.88 218.624 35.12C221.504 33.3067 224.197 32.4 226.704 32.4C228.41 32.4 229.797 32.9333 230.864 34C231.984 35.0133 232.544 36.5867 232.544 38.72C232.544 39.8933 232.437 41.0933 232.224 42.32C232.01 43.4933 231.744 44.72 231.424 46L227.344 62.4C227.13 63.2533 226.944 64 226.784 64.64C226.677 65.2267 226.624 65.7333 226.624 66.16C226.624 67.28 227.077 67.84 227.984 67.84C229.37 67.84 231.13 66.72 233.264 64.48L234.384 65.6C233.05 67.5733 231.317 69.3333 229.184 70.88C227.05 72.3733 224.677 73.12 222.064 73.12C220.41 73.12 219.104 72.72 218.144 71.92C217.184 71.12 216.704 70.0267 216.704 68.64C216.704 67.52 216.837 66.4 217.104 65.28C217.37 64.1067 217.69 62.8533 218.064 61.52L221.184 48.88C221.61 47.28 221.957 45.84 222.224 44.56C222.49 43.28 222.624 42.1333 222.624 41.12C222.624 40.0533 222.384 39.3333 221.904 38.96C221.477 38.5333 220.89 38.32 220.144 38.32C218.864 38.32 217.317 38.88 215.504 40C213.744 41.0667 211.744 42.7733 209.504 45.12L207.344 54.96C206.757 57.7867 206.197 60.6133 205.664 63.44C205.13 66.2667 204.597 69.12 204.064 72L195.024 72.64ZM247.016 73.12C245.149 73.12 243.549 72.48 242.216 71.2C240.936 69.92 240.296 68.3733 240.296 66.56C240.296 64.6933 240.936 63.0933 242.216 61.76C243.549 60.4267 245.149 59.76 247.016 59.76C248.882 59.76 250.456 60.4267 251.736 61.76C253.069 63.0933 253.736 64.6933 253.736 66.56C253.736 68.3733 253.069 69.92 251.736 71.2C250.456 72.48 248.882 73.12 247.016 73.12Z" fill="#0E1C51"/>
<rect x="260" width="349" height="87" fill="#0E1C51"/>
<path d="M293.448 72.96C292.104 72.96 290.632 72.768 289.032 72.384C287.432 72.064 285.832 71.552 284.232 70.848C282.632 70.08 281.16 69.12 279.816 67.968C278.536 66.816 277.512 65.472 276.744 63.936C275.976 62.4 275.592 60.608 275.592 58.56H284.616C284.616 58.624 284.648 59.04 284.712 59.808C284.84 60.576 285.16 61.44 285.672 62.4C286.184 63.296 287.016 64.096 288.168 64.8C289.32 65.504 290.984 65.856 293.16 65.856C294.888 65.856 296.296 65.632 297.384 65.184C298.472 64.736 299.272 64.192 299.784 63.552C300.36 62.848 300.648 62.08 300.648 61.248C300.648 59.84 300.04 58.752 298.824 57.984C297.672 57.152 296.168 56.48 294.312 55.968C292.456 55.456 290.472 54.944 288.36 54.432C286.312 53.856 284.36 53.12 282.504 52.224C280.712 51.328 279.24 50.112 278.088 48.576C276.936 46.976 276.36 44.928 276.36 42.432C276.36 38.72 277.832 35.936 280.776 34.08C283.72 32.224 287.464 31.296 292.008 31.296C294.44 31.296 296.712 31.584 298.824 32.16C301 32.672 302.92 33.536 304.584 34.752C306.248 35.904 307.56 37.408 308.52 39.264C309.544 41.056 310.056 43.264 310.056 45.888H301.032C301.096 44.416 300.84 43.232 300.264 42.336C299.752 41.376 299.048 40.64 298.152 40.128C297.256 39.616 296.296 39.264 295.272 39.072C294.248 38.88 293.256 38.784 292.296 38.784C289.992 38.784 288.232 39.2 287.016 40.032C285.864 40.8 285.288 41.824 285.288 43.104C285.288 44.576 285.864 45.728 287.016 46.56C288.232 47.328 289.768 47.968 291.624 48.48C293.544 48.992 295.56 49.536 297.672 50.112C299.784 50.624 301.768 51.328 303.624 52.224C305.48 53.12 306.984 54.336 308.136 55.872C309.352 57.344 309.96 59.328 309.96 61.824C309.96 64.32 309.256 66.4 307.848 68.064C306.504 69.664 304.584 70.88 302.088 71.712C299.656 72.544 296.776 72.96 293.448 72.96ZM334.924 72.96C330.572 72.96 326.892 72.096 323.884 70.368C320.94 68.64 318.732 66.272 317.26 63.264C315.788 60.192 315.052 56.704 315.052 52.8C315.052 48.832 315.788 45.344 317.26 42.336C318.732 39.264 320.94 36.864 323.884 35.136C326.892 33.408 330.604 32.544 335.02 32.544C341.484 32.544 346.38 34.4 349.708 38.112C353.1 41.824 354.796 46.72 354.796 52.8C354.796 56.576 354.092 60 352.684 63.072C351.276 66.144 349.1 68.576 346.156 70.368C343.212 72.096 339.468 72.96 334.924 72.96ZM334.924 64.704C337.804 64.704 339.98 64.096 341.452 62.88C342.988 61.664 344.012 60.128 344.524 58.272C345.036 56.352 345.292 54.432 345.292 52.512C345.292 50.464 345.036 48.512 344.524 46.656C344.012 44.8 342.988 43.264 341.452 42.048C339.98 40.768 337.804 40.128 334.924 40.128C332.108 40.128 329.932 40.768 328.396 42.048C326.924 43.264 325.9 44.8 325.324 46.656C324.812 48.512 324.556 50.464 324.556 52.512C324.556 54.432 324.812 56.352 325.324 58.272C325.9 60.128 326.924 61.664 328.396 62.88C329.932 64.096 332.108 64.704 334.924 64.704ZM365.133 72.096V26.112C365.133 22.656 365.901 20.16 367.437 18.624C369.037 17.088 371.405 16.32 374.541 16.32H384.909V23.904H374.925V72.096H365.133ZM359.757 39.456V32.544H384.621V39.456H359.757ZM402.293 72C399.157 72 396.789 71.232 395.189 69.696C393.653 68.16 392.885 65.664 392.885 62.208V38.4H402.005V64.32H411.221V72H402.293ZM386.933 39.456V32.544C388.341 32.544 389.493 32.448 390.389 32.256C391.285 32.064 391.989 31.648 392.501 31.008C393.077 30.368 393.493 29.376 393.749 28.032C394.005 26.688 394.133 24.832 394.133 22.464H402.005V32.544H411.029V39.456H386.933ZM424.823 72L415.607 34.176V32.448H425.207L431.735 63.84H431.927L440.375 32.448H448.823L457.559 63.84H457.751L464.279 32.448H473.783V34.176L464.471 72H450.839L444.695 49.44H444.503L438.647 72H424.823ZM493.151 72.96C489.567 72.96 486.655 72.128 484.415 70.464C482.175 68.736 480.543 66.368 479.519 63.36C478.559 60.288 478.079 56.768 478.079 52.8C478.079 48.768 478.591 45.216 479.615 42.144C480.639 39.072 482.239 36.704 484.415 35.04C486.655 33.312 489.567 32.448 493.151 32.448C495.455 32.448 497.375 32.768 498.911 33.408C500.511 34.048 501.791 34.816 502.751 35.712C503.775 36.608 504.543 37.504 505.055 38.4C505.567 39.232 505.919 39.904 506.111 40.416H506.303V32.544H516.383V72H507.935L506.303 65.568H506.111C505.983 66.016 505.631 66.656 505.055 67.488C504.479 68.256 503.679 69.088 502.655 69.984C501.695 70.816 500.415 71.52 498.815 72.096C497.279 72.672 495.391 72.96 493.151 72.96ZM497.183 64.704C499.551 64.704 501.407 64.192 502.751 63.168C504.095 62.144 505.023 60.736 505.535 58.944C506.047 57.088 506.303 55.072 506.303 52.896C506.303 50.528 506.015 48.48 505.439 46.752C504.927 44.96 503.999 43.584 502.655 42.624C501.375 41.6 499.551 41.088 497.183 41.088C494.687 41.088 492.735 41.632 491.327 42.72C489.983 43.808 489.023 45.248 488.447 47.04C487.935 48.768 487.679 50.72 487.679 52.896C487.679 55.072 487.935 57.056 488.447 58.848C489.023 60.64 489.983 62.08 491.327 63.168C492.735 64.192 494.687 64.704 497.183 64.704ZM523.595 72V32.544H532.715L533.483 44.064L533.387 52.512V72H523.595ZM533.387 55.008L533.099 46.272C533.099 44.928 533.355 43.488 533.867 41.952C534.379 40.352 535.211 38.848 536.363 37.44C537.579 36.032 539.147 34.88 541.067 33.984C542.987 33.024 545.355 32.544 548.171 32.544H549.611V43.488H548.171C545.419 43.488 543.083 43.712 541.163 44.16C539.243 44.544 537.707 45.184 536.555 46.08C535.467 46.976 534.667 48.16 534.155 49.632C533.643 51.104 533.387 52.896 533.387 55.008ZM573.984 72.96C569.44 72.96 565.728 72 562.848 70.08C560.032 68.096 557.92 65.568 556.512 62.496C555.168 59.424 554.464 56.224 554.4 52.896C554.336 48.928 555.072 45.408 556.608 42.336C558.208 39.2 560.448 36.768 563.328 35.04C566.272 33.248 569.728 32.352 573.696 32.352C577.216 32.352 580.384 33.12 583.2 34.656C586.016 36.192 588.224 38.336 589.824 41.088C591.488 43.84 592.352 47.136 592.416 50.976C592.416 51.104 592.416 51.488 592.416 52.128C592.416 52.704 592.416 53.152 592.416 53.472H563.712C563.712 57.12 564.608 59.936 566.4 61.92C568.256 63.84 570.72 64.8 573.792 64.8C576.224 64.8 578.24 64.192 579.84 62.976C581.504 61.76 582.496 60.16 582.816 58.176H592.32C592.064 60.928 591.168 63.424 589.632 65.664C588.096 67.904 586.016 69.696 583.392 71.04C580.768 72.32 577.632 72.96 573.984 72.96ZM564 49.056H582.624C582.56 48.608 582.432 47.904 582.24 46.944C582.048 45.984 581.632 44.992 580.992 43.968C580.352 42.944 579.424 42.08 578.208 41.376C576.992 40.672 575.424 40.32 573.504 40.32C571.584 40.32 570.016 40.64 568.8 41.28C567.584 41.92 566.656 42.72 566.016 43.68C565.376 44.64 564.896 45.6 564.576 46.56C564.256 47.52 564.064 48.352 564 49.056Z" fill="white"/>
</svg>
